<?xml version="1.0" standalone="no"?>
<!DOCTYPE svg PUBLIC "-//W3C//DTD SVG 1.1//EN" "http://www.w3.org/Graphics/SVG/1.1/DTD/svg11.dtd" >
<!--
2013-9-30: Created.
-->
<svg>
<metadata>
Created by iconfont
</metadata>
<defs>

<font id="iconfont" horiz-adv-x="1024" >
  <font-face
    font-family="iconfont"
    font-weight="500"
    font-stretch="normal"
    units-per-em="1024"
    ascent="896"
    descent="-128"
  />
    <missing-glyph />
    
    <glyph glyph-name="x" unicode="x" horiz-adv-x="1001"
d="M281 543q-27 -1 -53 -1h-83q-18 0 -36.5 -6t-32.5 -18.5t-23 -32t-9 -45.5v-76h912v41q0 16 -0.5 30t-0.5 18q0 13 -5 29t-17 29.5t-31.5 22.5t-49.5 9h-133v-97h-438v97zM955 310v-52q0 -23 0.5 -52t0.5 -58t-10.5 -47.5t-26 -30t-33 -16t-31.5 -4.5q-14 -1 -29.5 -0.5
t-29.5 0.5h-32l-45 128h-439l-44 -128h-29h-34q-20 0 -45 1q-25 0 -41 9.5t-25.5 23t-13.5 29.5t-4 30v167h911zM163 247q-12 0 -21 -8.5t-9 -21.5t9 -21.5t21 -8.5q13 0 22 8.5t9 21.5t-9 21.5t-22 8.5zM316 123q-8 -26 -14 -48q-5 -19 -10.5 -37t-7.5 -25t-3 -15t1 -14.5
t9.5 -10.5t21.5 -4h37h67h81h80h64h36q23 0 34 12t2 38q-5 13 -9.5 30.5t-9.5 34.5q-5 19 -11 39h-368zM336 498v228q0 11 2.5 23t10 21.5t20.5 15.5t34 6h188q31 0 51.5 -14.5t20.5 -52.5v-227h-327z" />
    

    
    <glyph glyph-name="T" unicode="&#58880;" d="M952.10158711 829.40401588l0-141.83996935-364.54197729 2e-8 3e-8-760.89852715-151.11921967 2e-8 0 760.89852711-364.54197729 2e-8 0 141.83996933 880.20317422 0z"  horiz-adv-x="1024" />

    
    <glyph glyph-name="iconfonticon2" unicode="&#58898;" d="M527.034926-46.620551c-247.174496 0-447.543989 200.370517-447.543989 447.538873 0 190.783161 119.585609 353.238137 287.701514 417.622516l0-69.242014c-131.960451-60.646242-223.765343-193.624882-223.765343-348.381525 0-211.845872 171.759899-383.606795 383.606795-383.606795 211.845872 0 383.605771 171.762969 383.605771 383.606795 0 154.75562-91.811032 287.736307-223.771483 348.411201L686.868191 818.540837c168.113859-64.384379 287.702538-226.840378 287.702538-417.622516C974.573799 153.749966 774.203282-46.620551 527.034926-46.620551L527.034926-46.620551zM495.066841 848.461287l63.931055 0L558.997895 399.768125l-63.931055 0L495.066841 848.461287 495.066841 848.461287z"  horiz-adv-x="1024" />

    
    <glyph glyph-name="lockclosed" unicode="&#58989;" d="M231.63407929-29.430370450000055l583.26716364 0c14.63470338 0 26.51214381 11.87744042 26.51214382 26.51214379l0 453.62278047c0 14.63470338-11.87744042 26.51214381-26.51214382 26.5121438l-12.56675616 0c0 27.30750811 0 65.96221377 0 66.49245666-1.64375292 151.78202327-126.8075838 275.24907696-279.04031351 275.24907695-152.68343616 0-277.84726704-123.8382237-279.06682567-276.25653842l0-65.48499519-12.56675616 0c-14.63470338 0-26.51214381-11.87744042-26.5121438-26.5121438l0-453.62278047C205.12193549-17.55293002999997 216.97286378-29.430370450000055 231.63407929-29.430370450000055zM788.38909915 23.59391715000004l-530.24287606 0 0 400.59849284 530.24287606 0L788.38909915 23.59391715000004zM297.22512305 542.4895956600001c0.98094932 123.20193226 102.36338722 223.44434796 226.04253807 223.44434796 123.30798082 0 224.71693087-99.95078213 226.01602591-222.6754958 0-1.72328935 0-39.29099711 0-66.04175021L297.19861091 477.21669761 297.22512305 542.4895956600001zM465.41816334 112.54215961c0-14.63470338 11.87744042-26.51214381 26.5121438-26.5121438l62.62168367 0c14.63470338 0 26.51214381 11.87744042 26.51214379 26.5121438l0 85.66073662c21.60739721 17.31242991 34.49229909 43.45340369 34.4922991 71.45022755 0 50.79726752-41.41196863 92.12969971-92.31528473 92.12969971s-92.31528471-41.33243219-92.31528471-92.12969971c0-27.99682386 12.88490189-54.13779764 34.49229908-71.45022755L465.41816334 112.54215961zM523.26766112 308.73202375000005c21.66042148 0 39.29099711-17.5510392 39.29099711-39.10541211 0-14.07794836-7.90061886-27.14843525-20.65296002-34.06810479-8.5369103-4.63962516-13.83933906-13.57421762-13.83933906-23.27766225l0-73.2265412-9.59739606 0 0 73.2265412c0 9.70344463-5.30242877 18.66454924-13.83933907 23.27766225-12.72582902 6.91966954-20.65296003 19.99015643-20.65296001 34.06810479C483.95015185 291.20749668999997 501.58072749 308.73202375000005 523.26766112 308.73202375000005z"  horiz-adv-x="1024" />

    
    <glyph glyph-name="right-1" unicode="&#58896;" d="M511.945-62.713c-247.066 0-448.054 200.988-448.054 448.060 0 247.066 200.988 448.054 448.054 448.054 247.073 0 448.060-200.988 448.060-448.054 0-247.072-200.989-448.060-448.060-448.060v0zM511.945 769.107c-211.608 0-383.758-172.151-383.758-383.758 0-211.581 172.151-383.765 383.758-383.765 211.581 0 383.765 172.185 383.765 383.765-0.001 211.608-172.186 383.758-383.765 383.758v0zM726.948 504.175c-12.545 12.448-32.837 12.322-45.249-0.254l-233.311-235.869-103.28 106.122c-12.35 12.707-32.612 12.932-45.249 0.64-12.678-12.322-12.965-32.612-0.64-45.251l126.032-129.522c0.064-0.093 0.19-0.093 0.254-0.19 0.064-0.064 0.097-0.191 0.161-0.254 2.017-1.988 4.512-3.204 6.881-4.547 1.25-0.674 2.241-1.793 3.52-2.305 3.873-1.601 8-2.398 12.096-2.398 4.063 0 8.131 0.796 11.969 2.334 1.25 0.513 2.208 1.539 3.394 2.178 2.398 1.344 4.898 2.525 6.945 4.542 0.063 0.064 0.098 0.196 0.19 0.259 0.064 0.094 0.161 0.128 0.259 0.191l256.254 259.042c12.452 12.608 12.32 32.865-0.226 45.282v0zM726.948 504.175z"  horiz-adv-x="1025" />

    
    <glyph glyph-name="openinnew" unicode="&#60525;" d="M598.016 768l297.984 0 0-297.984-86.016 0 0 152.021333-418.005333-418.005333-59.989333 59.989333 418.005333 418.005333-152.021333 0 0 86.016zM809.984 86.016l0 297.984 86.016 0 0-297.984q0-34.005333-25.984-59.989333t-59.989333-25.984l-596.010667 0q-36.010667 0-61.013333 25.984t-25.002667 59.989333l0 596.010667q0 34.005333 25.002667 59.989333t61.013333 25.984l297.984 0 0-86.016-297.984 0 0-596.010667 596.010667 0z"  horiz-adv-x="1024" />

    
    <glyph glyph-name="arrow-right-copy-copy-copy" unicode="&#58884;" d="M357.957 728.8240000000001l-49.463-48.973 294.308-296.327-296.782-293.831 49.044-49.381 346.239 342.809z"  horiz-adv-x="1024" />

    
    <glyph glyph-name="erweima" unicode="&#58946;" d="M375.46666666 861.86666667l-266.23999999 0c-54.61333333 0-95.57333333-44.37333333-95.57333334-95.57333334l0-242.34666666c0-54.61333333 44.37333333-95.57333333 95.57333334-95.57333334l266.24000001 0c54.61333333 0 95.57333333 44.37333333 95.57333332 95.57333334l0 242.34666666C471.04 817.49333333 430.07999999 861.86666667 375.46666666 861.86666667zM423.25333333 523.94666667c0-27.30666668-20.48-47.78666667-47.78666667-47.78666667l-266.23999999 0c-27.30666668 0-47.78666667 20.48-47.78666667 47.78666667l0 242.34666666c0 27.30666668 20.48 47.78666667 47.78666667 47.78666667l266.24000001 0c27.30666668 0 47.78666667-20.48 47.78666665-47.78666667L423.25333333 523.94666667zM170.66666667 725.33333333l143.36 0 0-143.36-143.36 0 0 143.36ZM368.64 349.86666667l-259.41333333 0c-51.2 0-92.16-40.96-92.16-95.57333334l0-235.52c0-51.2 40.96-95.57333333 92.16-95.57333333l259.41333333 0c51.2 0 92.16 40.96 92.16 95.57333333l0 235.52C464.21333333 308.90666667000005 419.84 349.86666667 368.64 349.86666667zM416.42666667 22.186666670000022c0-27.30666668-20.48-47.78666667-47.78666667-47.78666666l-259.41333333 0c-27.30666668 0-47.78666667 20.48-47.78666667 47.78666666l0 235.52c0 27.30666668 20.48 47.78666667 47.78666667 47.78666666l259.41333333 0c27.30666668 0 47.78666667-20.48 47.78666667-47.78666666L416.42666667 22.186666670000022zM170.66666667 216.74666666999997l139.94666666 0 0-139.94666667-139.94666666 0 0 139.94666667ZM641.70666667 428.37333333l266.24 0c54.61333333 0 95.57333333 44.37333333 95.57333333 95.57333334l0 242.34666666c0 54.61333333-44.37333333 95.57333333-95.57333333 95.57333334l-266.24 0c-54.61333333 0-95.57333333-44.37333333-95.57333334-95.57333334l0-242.34666666C546.13333333 469.33333333 590.50666667 428.37333333 641.70666667 428.37333333zM593.92000001 766.29333333c0 27.30666668 20.48 47.78666667 47.78666666 47.78666667l266.24 0c27.30666668 0 47.78666667-20.48 47.78666666-47.78666667l0-242.34666666c0-27.30666668-20.48-47.78666667-47.78666666-47.78666667l-266.24 0c-27.30666668 0-47.78666667 20.48-47.78666666 47.78666667L593.92000001 766.29333333zM713.38666667 725.33333333l143.36 0 0-143.36-143.36 0 0 143.36ZM576.85333333 165.54666667000004l146.77333334 0c13.65333333 0 23.89333333 10.24 23.89333333 23.89333333l0 146.77333333c0 13.65333333-10.24 23.89333333-23.89333333 23.89333334l-146.77333334 0c-13.65333333 0-23.89333333-10.24-23.89333333-23.89333334l0-146.77333333C552.96 175.78666667000005 563.2 165.54666667000004 576.85333333 165.54666667000004zM911.36 329.38666666999995l0-40.96c0-13.65333333 13.65333333-27.30666668 27.30666667-27.30666667l40.96 0c13.65333333 0 27.30666668 13.65333333 27.30666666 27.30666667l0 40.96c0 13.65333333-13.65333333 27.30666668-27.30666666 27.30666667l-40.96-2e-8C925.01333333 356.69333331999997 911.36 346.45333332999996 911.36 329.38666666999995zM587.09333333-76.79999999999995l51.2 0c13.65333333 0 23.89333333 10.24 23.89333334 23.89333333l0 51.2c0 13.65333333-10.24 23.89333333-23.89333334 23.89333334l-51.2 0c-13.65333333 0-23.89333333-10.24-23.89333333-23.89333334l0-51.2C563.2-66.55999999999995 573.44-76.79999999999995 587.09333333-76.79999999999995zM972.8 179.20000000000005l-105.81333334 0c-17.06666667 0-30.72-13.65333333-30.71999999-30.72l0-47.78666667-51.2 0c-20.48 0-34.13333333-13.65333333-34.13333334-34.13333333l0-105.81333333c0-17.06666667 13.65333333-30.72 30.72-30.72l191.14666667-3.41333334c17.06666667 0 30.72 13.65333333 30.72 30.72l0 191.14666667C1003.52 165.54666667000004 989.86666667 179.20000000000005 972.8 179.20000000000005z"  horiz-adv-x="1024" />

    
    <glyph glyph-name="lifangtilitiduomiantifangkuai" unicode="&#59386;" d="M398.67733333 419.49866667L95.57333333 583.3386666700001C89.42933333 586.752 82.60266667 588.1173333300001 76.45866667 588.1173333300001 54.61333333 588.1173333300001 34.13333333 569.00266667 34.13333333 542.3786666799999l0-320.17066668c0-33.45066667 17.06666667-63.488 45.056-78.50666667l303.104-163.84C388.43733333-23.55200000000002 395.264-25.60000001000003 401.408-25.60000001000003 423.25333333-25.60000001000003 443.73333333-5.802666670000008 443.73333333 20.821333330000016L443.73333333 340.99199999999996C443.73333333 373.76 426.66666667 404.48 398.67733333 419.49866667zM375.46666666 61.09866666999994l-264.19199999 142.67733334C107.17866667 206.50666666999996 102.39999999 212.65066666999996 102.39999999 222.20799999999997l2e-8 279.89333333 264.19199999-142.67733333C372.05333333 356.01066667 375.46666666 348.50133332999997 375.46666666 340.99199999999996L375.46666666 61.09866666999994zM879.27466667 588.1173333300001c-6.144 0-12.97066667-1.36533333-19.11466667-4.77866666L557.056 418.816C529.06666667 403.79733333 512 373.07733333 512 339.62666666999996l0-318.80533334C512-5.802666670000008 532.48-25.60000001000003 554.32533333-25.60000001000003c6.144 0 12.97066667 1.36533333 19.11466667 4.77866668l303.104 164.52266666c27.30666668 15.01866667 45.056 45.056 45.05600001 78.50666667L921.60000001 542.3786666799999C921.60000001 569.00266667 901.12 588.1173333300001 879.27466667 588.1173333300001zM853.33333333 222.89066666999997c0-9.55733333-4.77866667-16.38400001-8.87466666-18.432L580.26666667 61.09866666999994 580.26666667 339.62666666999996c0 9.55733333 4.77866667 16.38400001 8.87466666 18.432L853.33333333 502.10133333 853.33333333 222.89066666999997zM832.17066667 658.432c14.336 7.50933333 21.16266667 20.48 19.79733333 32.768 1.36533333 12.97066667-5.46133334 25.25866667-19.79733333 32.768L523.60533333 885.07733333C509.952 892.58666667 494.25066667 896 477.86666667 896c0 0 0 0 0 0 0 0 0 0 0 0-16.38400001 0-32.08533333-3.41333333-46.42133334-10.92266667L122.19733333 724.65066667C107.86133333 717.14133334 101.71733333 704.17066667 102.39999999 691.2 101.71733333 678.912 107.86133333 665.94133333 122.19733333 658.432l308.56533334-160.42666667c13.65333333-7.50933333 30.03733333-10.92266667 46.42133333-10.92266666 0 0 0 0 0.68266667 0 0 0 0 0 0.68266666 0 16.38400001 0 32.08533333 3.41333333 46.42133334 10.92266666L832.17066667 658.432zM477.184 555.34933333c-5.46133334 0-10.92266667 1.36533333-15.01866667 3.41333334L206.848 691.2l255.31733333 133.12C466.26133333 826.3680000100001 471.72266667 827.73333333 477.86666667 827.73333333c5.46133334 0 10.92266667-1.36533333 15.01866666-3.41333333l255.31733334-133.12L492.20266667 558.76266667C488.78933333 556.71466667 483.328 555.34933333 477.184 555.34933333z"  horiz-adv-x="1024" />

    
    <glyph glyph-name="shuangxianzuojiantou" unicode="&#58926;" d="M224 51.2l358.4 358.4c12.8 12.8 25.6 12.8 38.4 0l6.4-6.4c12.8-12.8 12.8-25.6 0-38.4l-358.4-358.4c-12.8-12.8-25.6-12.8-38.4 0l-6.4 6.4C211.2 25.6 211.2 38.4 224 51.2zM582.4 358.4 224 716.8c-12.8 12.8-12.8 25.6 0 38.4l6.4 6.4c12.8 12.8 25.6 12.8 38.4 0l358.4-358.4c12.8-12.8 12.8-25.6 0-38.4L620.8 358.4C608 345.6 588.8 345.6 582.4 358.4zM422.4 51.2l358.4 358.4c12.8 12.8 25.6 12.8 38.4 0l6.4-6.4c12.8-12.8 12.8-25.6 0-38.4l-358.4-358.4c-12.8-12.8-25.6-12.8-38.4 0l-6.4 6.4C409.6 25.6 409.6 38.4 422.4 51.2zM780.8 358.4 422.4 716.8c-12.8 12.8-12.8 25.6 0 38.4l6.4 6.4c12.8 12.8 25.6 12.8 38.4 0l358.4-358.4c12.8-12.8 12.8-25.6 0-38.4l-6.4-6.4C806.4 345.6 793.6 345.6 780.8 358.4z"  horiz-adv-x="1024" />

    
    <glyph glyph-name="diannaoban" unicode="&#58931;" d="M857.5051389 774.7444053300001L167.27144562 774.7444053300001c-50.82380745 0-92.03053795-41.19508765-92.03053796-92.03053795l0-483.16148964c0-50.82147954 41.20789447-92.03170189 92.03053796-92.03170191l690.23369328 0c50.82147954 0 92.02937401 41.2102235 92.02937402 92.03170191L949.53451294 682.71270341C949.53451294 733.54931769 908.32661844 774.7444053300001 857.5051389 774.7444053300001zM512.40924957 130.52830946999995c-25.42238265 0-46.02691243 20.60452979-46.02691243 46.01410448 0 25.4119037 20.60452979 46.01410446 46.02691243 46.01410445 25.41073978 0 46.01526955-20.60220075 46.01526954-46.01410445C558.42568306 151.13283924999996 537.82115328 130.52830946999995 512.40924957 130.52830946999995zM880.51277369 245.56531826000003L144.27312583 245.56531826000003 144.27312583 705.72150215l736.23848391 0L880.51160974 245.56531826000003zM673.46501974 61.505406300000004L351.35580843 61.505406300000004c-19.06416753 0-34.51203356-15.45601708-34.51203359-34.51319865 0-19.05135956 15.4478672-34.51086962 34.51203359-34.51086961l322.10804736 0c19.0536886 0 34.4899129 15.45834496 34.48991289 34.51086961C707.95493262 46.04822528 692.51870834 61.505406300000004 673.46501974 61.505406300000004z"  horiz-adv-x="1024" />

    
    <glyph glyph-name="erjicaidanzonghefenxi" unicode="&#59006;" d="M860.084767 335.051171 620.776426 335.051171l-62.546521 0 0-62.546521 0-244.747213 0-43.51098 0-19.035542c201.237257 2.719948 364.401384 165.884075 364.401384 367.121332 0 2.718925 0 2.718925 0 2.718925l-5.438872 0L860.084767 335.051171zM620.776426 35.915233 620.776426 272.50465c0 0 233.869469 0 233.869469 0C830.17148 152.849456 737.711671 60.389648 620.776426 35.915233zM416.820244 819.106726 153.036465 819.106726c-40.791032 0-70.704318-32.633235-70.704318-70.704318l0-263.783779c0-38.072107 32.633235-70.705342 70.704318-70.705342l263.783779 0c38.072107 0 70.705342 29.913287 70.705342 70.705342L487.525586 748.402407C487.525586 786.473491 454.892351 819.106726 416.820244 819.106726zM424.978041 484.618629c0-2.719948-2.718925-8.157797-8.157797-8.157797L153.036465 476.460832c-2.718925 0-8.157797 2.718925-8.157797 8.157797L144.878668 748.402407c0 2.718925 2.718925 8.157797 8.157797 8.157797l263.783779 0c2.719948 0 8.157797-2.718925 8.157797-8.157797L424.978041 484.618629zM416.820244 354.086713 153.036465 354.086713c-38.072107 0-70.704318-32.633235-70.704318-70.704318l0-263.783779c0-38.072107 32.633235-70.704318 70.704318-70.704318l263.783779 0c38.072107 0 70.705342 32.633235 70.705342 70.704318L487.525586 283.381371C487.525586 321.453479 454.892351 354.086713 416.820244 354.086713zM424.978041 22.317541c0-5.438872-2.718925-8.157797-8.157797-8.157797L153.036465 14.159744c-5.438872 0-8.157797 2.718925-8.157797 8.157797L144.878668 286.101319c0 5.438872 2.718925 8.157797 8.157797 8.157797l263.783779 0c5.438872 0 8.157797-2.718925 8.157797-8.157797L424.978041 22.317541zM870.962511 819.106726 607.179756 819.106726c-38.072107 0-70.704318-32.633235-70.704318-70.704318l0-263.783779c0-38.072107 32.633235-70.705342 70.704318-70.705342l263.783779 0c40.791032 0 70.704318 29.913287 70.704318 70.705342L941.667853 748.402407C941.667853 786.473491 909.034619 819.106726 870.962511 819.106726zM879.121332 484.618629c0-2.719948-2.718925-8.157797-8.157797-8.157797L607.179756 476.460832c-2.718925 0-8.157797 2.718925-8.157797 8.157797L599.021959 748.402407c0 2.718925 2.718925 8.157797 8.157797 8.157797l263.783779 0c2.718925 0 8.157797-2.718925 8.157797-8.157797L879.121332 484.618629z"  horiz-adv-x="1024" />

    
    <glyph glyph-name="shangpin" unicode="&#58952;" d="M917.064447 604.4204669999999L768.692032 604.4204669999999c1.551472 1.919168 3.085581 3.948645 4.600283 6.113965 28.344241 40.526208 42.8335 87.548376 40.797895 132.405225-1.037719 22.876809-6.294748 44.07958-15.622987 63.016936-10.050353 20.403033-24.30878 37.155663-42.380008 49.794186C738.017007 868.390323 717.389271 876.036353 694.776999 878.478467c-20.988282 2.268479-42.70787-0.068432-64.553088-6.940259-42.8335-13.475031-82.032939-43.215495-110.37718-83.740682-2.479904-3.545201-4.846435-7.143513-7.112871-10.78268-2.265415 3.639167-4.632967 7.23748-7.112871 10.78268-28.344241 40.526208-67.543681 70.265651-110.37718 83.740682-21.845218 6.872848-43.564806 9.208738-64.553088 6.940259-22.612272-2.442113-43.240008-10.088144-61.310215-22.726666C251.309276 843.113278 237.049828 826.359626 226.999475 805.956593c-9.32926-18.938378-14.585268-40.140128-15.622987-63.016936-2.035605-44.856848 12.453653-91.880038 40.797895-132.405225 1.514703-2.16532 3.048811-4.194797 4.600283-6.113965L101.424201 604.4204669999999c-50.232357 0-91.099705-40.867348-91.099705-91.099705l0-57.56176c0-50.232357 40.867348-91.099705 91.099705-91.099705l4.393965 0 0-377.07922c0-50.233378 40.867348-91.099705 91.099705-91.099705l630.26946 0c50.232357 0 91.098684 40.867348 91.098684 91.099705L918.286015 364.674617c49.670599 0.657767 89.877117 41.260579 89.877117 91.084385l0 57.56176C1008.164153 563.5531189999999 967.296804 604.4204669999999 917.064447 604.4204669999999zM574.250393 749.747136c18.408283 29.642412 46.952714 49.356015 75.897526 58.461594 10.020733 3.15197 19.782035 4.715699 29.024479 4.715699 14.586289 0 27.880536-3.89349 38.865449-11.575269 17.945599-12.551706 28.504598-34.363218 29.732293-61.41746 1.375795-30.311414-11.756053-68.283158-38.005449-91.273339-57.638364-50.482594-126.60993-47.122263-144.555529-34.570557C551.759665 623.491624 537.159076 690.021077 574.250393 749.747136zM277.69758 739.930679c1.227696 27.054242 11.786694 48.866775 29.732293 61.41746 10.984913 7.6828 24.27916 11.575269 38.865449 11.575269 9.242443 0 19.003746-1.562707 29.024479-4.715699 28.94379-9.1066 57.489243-28.819182 75.897526-58.461594 37.090295-59.726059 22.490728-126.25449 9.041232-135.660354-17.945599-12.551706-86.917165-15.912037-144.555529 34.570557C289.453633 671.647521 276.321785 709.619265 277.69758 739.930679zM76.715041 455.759002l0 57.56176c0 13.625173 11.085008 24.710181 24.710181 24.710181l375.392926 0 0-106.982122L101.424201 431.048821C87.800049 431.048821 76.715041 442.132807 76.715041 455.759002zM172.208711-12.419924000000037L172.208711 364.65929700000004l304.609437 0 0-401.789401-279.898235 0C183.293719-37.13010499999996 172.208711-26.045097000000055 172.208711-12.419924000000037zM827.188352-37.13010499999996L545.75703-37.13010499999996l0 401.789401 306.140481 0 0-377.07922C851.897512-26.045097000000055 840.813525-37.13010499999996 827.188352-37.13010499999996zM941.774628 455.759002c0-13.625173-11.086029-24.710181-24.710181-24.710181L545.75703 431.048821 545.75703 538.030943l371.307417 0c13.625173 0 24.710181-11.085008 24.710181-24.710181L941.774628 455.759002z"  horiz-adv-x="1024" />

    
    <glyph glyph-name="browse" unicode="&#59104;" d="M662.257 513.543c0-32.885-25.799-59.2-58.201-59.2-32.371 0-58.686 26.315-58.686 59.2 0 32.371 26.315 58.686 58.686 58.686 4.058 0 7.6-1.514 11.657-2.028-29.343 20.743-65.285 33.401-103.715 33.401-100.201 0-181.142-81.971-181.142-183.172 0-100.657 80.944-182.629 181.142-182.629 100.171 0 181.115 81.971 181.115 182.629 0 38.971-12.657 75.399-33.401 104.742 1.029-4.059 2.544-7.601 2.544-11.63zM1014.371 438.142c-84.485 154.829-283.827 311.142-502.371 311.142-218.571 0-417.915-156.314-501.886-311.142l-10.114-17.713 10.114-17.686c83.972-154.315 283.315-311.142 501.886-311.142 218.544 0 417.885 156.829 502.371 311.142l9.629 17.686-9.629 17.713zM512 164.429c-180.114 0-350.629 129.028-428.542 256 77.914 127.514 248.428 256 428.542 256 180.085 0 350.599-128.486 428.515-256-77.915-126.972-248.43-256-428.515-256z"  horiz-adv-x="1024" />

    
    <glyph glyph-name="weibiaoti2fuzhi07" unicode="&#58901;" d="M460.8 70.39999999999998l102.4 0 0-31.99999999L460.8 38.400000009999985 460.8 70.39999999999998zM729.6 832L294.4 832C268.8 832 243.2 812.8 243.2 787.2l0-806.4c0-25.60000003 19.2-44.80000001 44.8-44.8l441.6 0c25.60000003 0 44.80000001 19.2 44.8 44.8L774.4 787.2C780.8 812.8 755.2 832 729.6 832zM742.40000001-19.200000000000045c0-6.4-6.4-12.8-12.80000001-12.80000001L294.4-31.999999989999992c-6.4 0-12.8 6.4-12.80000001 12.79999999l0 153.6 467.20000002 0L748.80000001-19.200000000000045zM742.40000001 166.39999999999998L281.59999999 166.39999999999998 281.59999999 697.6l467.20000002 0L748.80000001 166.39999999999998zM742.40000001 729.59999999L281.59999999 729.59999999 281.59999999 787.2c0 6.4 6.4 12.8 12.80000001 12.80000001l441.6 0c6.4 0 12.8-6.4 12.79999999-12.80000001L748.80000001 729.59999999z"  horiz-adv-x="1024" />

    
    <glyph glyph-name="jiantou2" unicode="&#58885;" d="M670.676929 118.407016L403.62778 382.637979l265.320785 268.146133c11.776208 11.775184 11.734252 30.908964-0.091074 42.73429l-0.001023 0c-11.825326 11.82635-30.958082 11.867282-42.72815-2.930749L343.100242 407.559579c-3.817955-4.273327-8.205892-9.321296-8.933463-12.045337-4.470825-11.112082-2.232854-24.765033 6.710842-35.987632l286.98213-286.98213c11.875468-8.847505 31.096229-8.893554 42.922578 2.932796C682.606633 87.30362400000001 682.560584 106.52336100000002 670.676929 118.407016z"  horiz-adv-x="1024" />

    
    <glyph glyph-name="bianji" unicode="&#58933;" d="M1017.576256-74.610198 26.694901-74.610198c-14.682196 0-26.694901-12.012705-26.694901-26.694901 0-14.682196 12.012705-26.694901 26.694901-26.694901l990.881355 0c14.682196 0 26.694901 12.012705 26.694901 26.694901C1044.271157-86.622904 1032.258451-74.610198 1017.576256-74.610198L1017.576256-74.610198zM65.736194 2.304485c2.502647 0 4.838451 0.333686 7.341098 1.001059l164.340484 46.88292c4.337921 1.167902 8.342157 3.503706 11.512176 6.840568l516.37949 516.212647c10.511117 10.344274 10.511117 27.362273 0 37.706548-10.511117 10.511117-27.362273 10.511117-37.706548 0L280.963833 164.642852l-86.758428 86.758428c-3.003176 3.003176-6.673725 5.172137-10.67796 6.340039l436.96216 436.96216c10.511117 10.344274 10.511117 27.362273 0 37.706548-10.511117 10.511117-27.362273 10.511117-37.706548 0L70.407801 220.034771c-4.171078-4.171078-6.840568-9.510058-7.507941-15.349568l-23.524881-172.015268c-1.167902-9.009529 2.168961-17.852215 9.009529-23.858568C53.222959 4.640289 59.396155 2.304485 65.736194 2.304485L65.736194 2.304485zM114.454388 188.668263l35.537587 35.537587c1.334745-3.837392 3.336863-7.507941 6.340039-10.67796l86.758428-86.758428-27.028587-27.028587-118.29178-33.869156L114.454388 188.668263 114.454388 188.668263zM778.823735 628.13307c5.172137-4.671608 11.679019-7.007412 18.019058-7.007412 7.174255 0 14.348509 2.836333 19.687489 8.509l94.266369 101.941153c4.838451 5.172137 7.341098 12.179549 7.007412 19.18696-0.333686 7.007412-3.336863 13.681137-8.509 18.519588l-129.47027 119.626525c-10.844804 10.010588-27.69596 9.343215-37.706548-1.501588l-94.099526-101.941153c-10.010588-10.844804-9.343215-27.69596 1.501588-37.706548L778.823735 628.13307 778.823735 628.13307zM763.307324 831.348003l90.262134-83.254722-58.06141-62.733017-90.095291 83.254722L763.307324 831.348003 763.307324 831.348003zM1173.741426 175.320812 1212.449033 214.028419 1221.792248 204.685203 1183.084642 165.977597ZM1233.771935 216.778277l-7.668361-7.668361-9.320007 9.320007 7.668361 7.668361 9.320007-9.320007ZM1173.741426 175.320812 1169.737191 161.973362 1173.741426 175.320812ZM1169.737191 161.973362 1183.084642 165.977597 1169.737191 161.973362ZM1167.901917 156.968068 1237.976032 156.968068 1167.901917 156.968068Z"  horiz-adv-x="1240" />

    
    <glyph glyph-name="icon-test" unicode="&#58982;" d="M911.99616 642.704081H111.173469c-8.449102 0-15.285584 6.836482-15.285584 15.285584s6.836482 15.285584 15.285584 15.285584h800.822691c8.449102 0 15.285584-6.836482 15.285584-15.285584s-6.836482-15.285584-15.285584-15.285584zM911.99616 368.587454H111.173469c-8.449102 0-15.285584 6.836482-15.285584 15.285584s6.836482 15.285584 15.285584 15.285584h800.822691c8.449102 0 15.285584-6.836482 15.285584-15.285584 0.001024-8.448078-6.836482-15.285584-15.285584-15.285584zM911.99616 94.486186H111.173469c-8.449102 0-15.285584 6.836482-15.285584 15.285584s6.836482 15.285584 15.285584 15.285584h800.822691c8.449102 0 15.285584-6.836482 15.285584-15.285584s-6.836482-15.285584-15.285584-15.285584z"  horiz-adv-x="1024" />

    
    <glyph glyph-name="ceng" unicode="&#58927;" d="M530.084939 315.712275a54.567567 54.567567 0 0 0-34.299614 12.160773L19.644324 563.293123l-3.741776 3.741776a55.191197 55.191197 0 0 0 0 77.953668l3.741776 3.741776L495.473511 883.838604A54.567567 54.567567 0 0 0 530.084939 895.999376a54.567567 54.567567 0 0 0 34.299614-12.160772l476.141001-235.420076 3.741776-3.741776a55.191197 55.191197 0 0 0 0-77.953667l-3.741776-3.741776-476.141001-235.420076a54.567567 54.567567 0 0 0-34.299614-11.848958zM74.211891 605.699919L530.084939 380.257912l455.873048 225.442007L530.084939 831.45374zM530.084939 94.012045a54.567567 54.567567 0 0 0-34.299614 12.160772L24.321544 339.098376a31.181467 31.181467 0 1 0 27.751506 55.814826L526.966792 160.116755l3.118147-1.870888 3.118147 1.870888 474.893742 235.108261a31.181467 31.181467 0 0 0 27.751506-55.814826L564.384553 105.861003a54.567567 54.567567 0 0 0-34.299614-11.848958zM530.084939-128a54.879382 54.879382 0 0 0-34.299614 12.160772L24.321544 116.462701a31.181467 31.181467 0 1 0 27.751506 55.814826l474.893742-233.861002 3.118147-1.870888 3.118147 1.870888 474.893742 235.108261a31.181467 31.181467 0 0 0 27.751506-57.062085L564.384553-115.839228a55.191197 55.191197 0 0 0-34.299614-12.160772z"  horiz-adv-x="1060" />

    
    <glyph glyph-name="qingkong" unicode="&#58905;" d="M466.37562465 429.36366462H420.75124932V686.2940754900001C420.75124932 711.32230425 441.17358875 731.61428833 466.37562465 731.61428833h91.2487507c25.2020359 0 45.58092356-20.29198409 45.58092356-45.32021285v-256.93041086h-45.62437535v237.24675179a19.72711087 19.72711087 0 0 1-19.72711086 19.68365908h-51.70762539a19.68365908 19.68365908 0 0 1-19.77056266-19.68365908v-237.24675179z m91.2487507 0h212.78339624c25.2020359 0 45.62437535-20.33543587 45.62437534-45.36366462v-105.80509901H207.96785307V384c0 25.02822876 20.42233943 45.36366462 45.62437535 45.36366462H466.37562465V384H273.31933927a19.72711087 19.72711087 0 0 1-19.72711085-19.6402073v-40.84467887h516.81554317v40.84467887A19.68365908 19.68365908 0 0 1 750.68066073 384H557.62437535V429.36366462z m42.27858782-347.61428832h41.27919674V172.38980198000002h-41.27919674v-90.68387747h-315.89448453a30.32934666 30.32934666 0 0 0-30.41625022 30.24244309v105.80509901h516.81554317v-105.80509902a30.32934666 30.32934666 0 0 0-30.41625023-30.24244307h-10.68913937V172.38980198000002h-42.49584674v-90.68387747h-173.80714416 86.90357208z m-391.9351101 0c0-25.07168054 20.42233943-45.36366462 45.62437535-45.36366463h516.81554317c25.2020359 0 45.62437535 20.29198409 45.62437534 45.32021285v181.36775492H207.96785307v-181.36775492z"  horiz-adv-x="1024" />

    
    <glyph glyph-name="LOCKOPEN" unicode="&#59149;" d="M465.41816334 112.54215961a26.51214381 26.51214381 0 0 1 26.5121438-26.5121438h62.62168367a26.51214381 26.51214381 0 0 1 26.51214379 26.5121438v85.66073662a91.57294469 91.57294469 0 0 1 34.4922991 71.45022755 92.34179686 92.34179686 0 0 1-184.63056944 0c0-27.99682386 12.88490189-54.13779764 34.49229908-71.45022755v-85.66073662z m57.84949778 196.18986414a39.23797282 39.23797282 0 0 0 39.29099711-39.10541211c0-14.07794836-7.90061886-27.14843525-20.65296002-34.06810479a26.51214381 26.51214381 0 0 1-13.83933906-23.27766225v-73.2265412h-9.59739606v73.2265412c0 9.70344463-5.30242877 18.66454924-13.83933907 23.27766225a38.97285139 38.97285139 0 0 0-20.65296001 34.06810479 39.21146068 39.21146068 0 0 0 39.29099711 39.10541211zM231.63407929-29.244785449999995h583.26716364a26.51214381 26.51214381 0 0 1 26.51214382 26.51214381V446.48912294a26.51214381 26.51214381 0 0 1-26.51214382 26.5121438H286.91189911a220.10381785 220.10381785 0 0 0 53.97872478 227.73931527c87.2779774 86.13795521 229.99284749 86.88029524 318.09270135 1.77631363l65.6705802-64.79567945 37.24956205 37.75329278-65.98872593 65.11382516c-108.72630173 105.06762589-284.68740015 104.11318871-392.24716757-2.12097148a273.28717831 273.28717831 0 0 1-72.51071329-265.54563234 26.45911951 26.45911951 0 0 1-26.00841307-26.40609523v-449.22176458a26.45911951 26.45911951 0 0 1 26.48563166-26.53865595z m556.75501986 53.0242876h-530.24287606V419.97697914h530.24287606v-396.19747699z"  horiz-adv-x="1024" />

    
    <glyph glyph-name="daohang-mobanxiaoxi" unicode="&#58891;" d="M379.31457238 746.09882724v-317.74895771H149.75462217V746.09882724h229.55995021m87.75462215 87.75462218H62v-493.25820205h405.06919453V833.85344942zM379.31457238 166.91831864999995v-145.16457363H149.75462217V166.91831864999995h229.55995021m87.75462215 87.75462305H62v-320.67381885h405.06919453V254.67294170000002zM872.85271133 746.24537783v-138.63738516H643.89037079V746.24537783H872.85271133m87.75462305 87.75462217H556.13574864v-314.14663037H960.60733438V834zM872.85271133 339.06392901000004v-315.46294894H643.89037079V339.06392901000004H872.85271133m87.75462305 87.75462304H556.13574864v-490.97219502H960.60733438V426.81855205z"  horiz-adv-x="1024" />

    
    <glyph glyph-name="caozuo-quanping-zhankai" unicode="&#59196;" d="M580.15093994 487.12866211L748.95861817 655.91162109H660.31542969a24.71923828 24.71923828 0 0 0 0 49.43847657h148.31542968a24.64508057 24.64508057 0 0 0 24.71923829-24.71923828v-148.31542969a24.71923828 24.71923828 0 0 0-49.43847657 0V620.95861817l-168.78295898-168.80767823a124.26361084 124.26361084 0 0 1-34.97772217 34.97772217z m34.97772217-171.30432129L783.91162109 147.06610106999995V235.68457031000003a24.71923828 24.71923828 0 0 0 49.43847657 0v-148.31542968a24.64508057 24.64508057 0 0 0-24.71923828-24.71923829h-148.31542969a24.71923828 24.71923828 0 0 0 0 49.43847657h88.64318848l-168.80767823 168.78295898a124.26361084 124.26361084 0 0 1 34.97772217 34.97772217z m-171.30432129-34.95300293L275.06610107 112.08837890999996H363.68457031a24.71923828 24.71923828 0 0 0 0-49.43847657H215.36914062a24.64508057 24.64508057 0 0 0-24.71923828 24.71923828v148.31542969a24.71923828 24.71923828 0 0 0 49.43847657 0v-88.64318848l168.78295898 168.80767823a124.26361084 124.26361084 0 0 1 34.97772217-34.97772217z m-34.95300293 171.30432129L240.08837891 620.9338989299999V532.31542969a24.71923828 24.71923828 0 0 0-49.43847657 0V680.63085938a24.64508057 24.64508057 0 0 0 24.71923828 24.71923828h148.31542969a24.71923828 24.71923828 0 0 0 0-49.43847657H275.04138183l168.80767823-168.78295898a124.26361084 124.26361084 0 0 1-34.97772217-34.97772217z"  horiz-adv-x="1024" />

    
    <glyph glyph-name="tuceng" unicode="&#58881;" d="M512 309.00018309999996L137.00009156 524.6252746600001 512 740.2503662199999l374.99990844-215.62591554L512 309.00100708zM230.75027466 524.6252746600001L512 365.24963378999996l281.24972534 159.37564087L512 684.00009157 230.75027466 524.6252746600001zM840.1248169 430.87509156l-46.87509156-28.12472534L512 243.37472534999995 183.8751831 430.87591552l-46.87591552-28.12472534L512 187.12445067l374.99990844 215.62591555zM840.1248169 299.625l-46.87509156-28.12472534L512 112.12463377999995l0-4.68676756L183.8751831 294.93658447999996l-46.87591552-23.4371338L512 55.874359140000024l374.99990844 215.62591552z"  horiz-adv-x="1024" />

    
    <glyph glyph-name="guanbi" unicode="&#58887;" d="M588.4 379.9l198.8 198.8c21.1 21.1 21.1 55.3 0 76.4-21.1 21.1-55.3 21.1-76.4 0L512 456.3 313.2 655c-21.1 21.1-55.3 21.1-76.4 0-21.1-21.1-21.1-55.3 0-76.4l198.8-198.8-198-197.9c-21.1-21.1-21.1-55.3 0-76.4 21.1-21.1 55.3-21.1 76.4 0l198 197.9 197.9-197.9c21.1-21.1 55.3-21.1 76.4 0 21.1 21.1 21.1 55.3 0 76.4l-197.9 198z"  horiz-adv-x="1024" />

    
    <glyph glyph-name="moban" unicode="&#58979;" d="M854.1 726.7H169.2v-237.5h684.9V726.7z m-46-191.5H215.2V680.7h592.9v-145.5zM169.2 258.4h326.5V432.1H169.2v-173.7z m46 127.7h234.5v-81.7H215.2v81.7zM169.2 41.3h326.5V215H169.2v-173.7z m46 127.7h234.5v-81.7H215.2V169zM553.3 432.1v-390.7h301.4V432.1H553.3z m255.5-344.7H599.3V386.1h209.4v-298.7z"  horiz-adv-x="1024" />

    
    <glyph glyph-name="xiashuangjiantou" unicode="&#58903;" d="M164.1 774.5L512 426.6l347.9 347.9 67.5-67.5L512 291.7 96.6 707zM164.1 476.3L512 128.4l347.9 347.9 67.5-67.4L512-6.5 96.6 408.9z"  horiz-adv-x="1024" />

    
    <glyph glyph-name="qizi" unicode="&#58906;" d="M209.80622222 189.55377778000002V769.36533333c-2.048 14.79111111 1.59288889 37.31911111 17.97688889 58.14044445 34.816 43.80444445 113.89155555 65.99111111 235.06488889 65.99111111 75.43466667 0 127.20355555-47.33155555 168.84622222-85.33333334 24.576-22.41422222 47.78666667-43.57688889 68.83555556-48.81066666 63.14666667-15.47377778 164.18133333 31.51644445 197.74577777 50.97244444l53.02044445 30.72-72.24888889-528.15644444-8.98844444-7.39555556c-3.41333333-2.84444445-84.76444445-69.29066667-180.56533334-46.30755555-35.84 8.64711111-68.94933333 22.41422222-100.92088888 35.84C546.24711111 312.66133333000005 506.31111111 329.38666666999995 468.87822222 329.38666666999995c-131.75466667 0-206.16533333-80.896-206.848-81.69244445l-52.224-58.14044444z m259.072 199.79377777c49.37955555 0 96.93866667-19.79733333 142.79111111-39.02577777 29.80977778-12.51555555 60.64355555-25.37244445 91.81866667-32.88177778 51.2-12.288 100.01066667 14.90488889 119.35288889 27.76177778l53.02044444 387.52711111c-50.28977778-21.73155555-127.54488889-46.87644445-189.78133333-31.51644444-35.95377778 8.87466667-64.62577778 35.04355555-95.00444445 62.69155555-37.54666667 34.24711111-76.23111111 69.632-128.4551111 69.632-134.03022222 0-174.87644445-28.78577778-186.25422223-41.18755555-6.37155555-6.94044445-7.28177778-12.40177778-7.28177777-14.56355556l1.59288888-4.20977778-1.13777778-1.70666666V330.52444445000003c42.55288889 27.76177778 110.02311111 58.82311111 199.33866667 58.8231111z m382.06577778-60.8711111h0.11377778-0.11377778zM268.85688889 778.69511111M239.84355555-50.631111110000006c-16.49777778 0-29.92355555 13.42577778-29.92355555 29.92355556V764.928c0 16.49777778 13.42577778 29.92355555 29.92355555 29.92355555s29.92355555-13.42577778 29.92355556-29.92355555v-785.63555555c0.11377778-16.49777778-13.312-29.92355555-29.92355556-29.92355556zM246.10133333-125.49688889000004c-97.28 0-173.39733333 48.81066667-173.39733333 111.04711111s76.11733333 111.04711111 173.39733333 111.04711111 173.39733333-48.81066667 173.39733334-111.04711111-76.11733333-111.04711111-173.39733334-111.04711111z m0 162.13333334c-69.29066667 0-113.43644445-30.26488889-113.43644444-51.08622223s44.14577778-51.08622222 113.43644444-51.08622222 113.43644445 30.26488889 113.43644445 51.08622222-44.14577778 51.08622222-113.43644445 51.08622223z"  horiz-adv-x="1024" />

    
    <glyph glyph-name="align-center" unicode="&#59177;" d="M264 666h496c4.4 0 8 3.6 8 8v56c0 4.4-3.6 8-8 8H264c-4.4 0-8-3.6-8-8v-56c0-4.4 3.6-8 8-8zM760 242c4.4 0 8 3.6 8 8v56c0 4.4-3.6 8-8 8H264c-4.4 0-8-3.6-8-8v-56c0-4.4 3.6-8 8-8h496zM904 102H120c-4.4 0-8-3.6-8-8v-56c0-4.4 3.6-8 8-8h784c4.4 0 8 3.6 8 8v56c0 4.4-3.6 8-8 8zM904 526H120c-4.4 0-8-3.6-8-8v-56c0-4.4 3.6-8 8-8h784c4.4 0 8 3.6 8 8v56c0 4.4-3.6 8-8 8z"  horiz-adv-x="1024" />

    
    <glyph glyph-name="align-left" unicode="&#59178;" d="M120 666h496c4.4 0 8 3.6 8 8v56c0 4.4-3.6 8-8 8H120c-4.4 0-8-3.6-8-8v-56c0-4.4 3.6-8 8-8zM120 242h496c4.4 0 8 3.6 8 8v56c0 4.4-3.6 8-8 8H120c-4.4 0-8-3.6-8-8v-56c0-4.4 3.6-8 8-8zM904 102H120c-4.4 0-8-3.6-8-8v-56c0-4.4 3.6-8 8-8h784c4.4 0 8 3.6 8 8v56c0 4.4-3.6 8-8 8zM904 526H120c-4.4 0-8-3.6-8-8v-56c0-4.4 3.6-8 8-8h784c4.4 0 8 3.6 8 8v56c0 4.4-3.6 8-8 8z"  horiz-adv-x="1024" />

    
    <glyph glyph-name="align-right" unicode="&#59179;" d="M904 738H408c-4.4 0-8-3.6-8-8v-56c0-4.4 3.6-8 8-8h496c4.4 0 8 3.6 8 8v56c0 4.4-3.6 8-8 8zM904 314H408c-4.4 0-8-3.6-8-8v-56c0-4.4 3.6-8 8-8h496c4.4 0 8 3.6 8 8v56c0 4.4-3.6 8-8 8zM904 102H120c-4.4 0-8-3.6-8-8v-56c0-4.4 3.6-8 8-8h784c4.4 0 8 3.6 8 8v56c0 4.4-3.6 8-8 8zM904 526H120c-4.4 0-8-3.6-8-8v-56c0-4.4 3.6-8 8-8h784c4.4 0 8 3.6 8 8v56c0 4.4-3.6 8-8 8z"  horiz-adv-x="1024" />

    
    <glyph glyph-name="qizi-copy" unicode="&#59387;" d="M209.80622222 189.55377778000002V769.36533333c-2.048 14.79111111 1.59288889 37.31911111 17.97688889 58.14044445 34.816 43.80444445 113.89155555 65.99111111 235.06488889 65.99111111 75.43466667 0 127.20355555-47.33155555 168.84622222-85.33333334 24.576-22.41422222 47.78666667-43.57688889 68.83555556-48.81066666 63.14666667-15.47377778 164.18133333 31.51644445 197.74577777 50.97244444l53.02044445 30.72-72.24888889-528.15644444-8.98844444-7.39555556c-3.41333333-2.84444445-84.76444445-69.29066667-180.56533334-46.30755555-35.84 8.64711111-68.94933333 22.41422222-100.92088888 35.84C546.24711111 312.66133333000005 506.31111111 329.38666666999995 468.87822222 329.38666666999995c-131.75466667 0-206.16533333-80.896-206.848-81.69244445l-52.224-58.14044444z m259.072 199.79377777c49.37955555 0 96.93866667-19.79733333 142.79111111-39.02577777 29.80977778-12.51555555 60.64355555-25.37244445 91.81866667-32.88177778 51.2-12.288 100.01066667 14.90488889 119.35288889 27.76177778l53.02044444 387.52711111c-50.28977778-21.73155555-127.54488889-46.87644445-189.78133333-31.51644444-35.95377778 8.87466667-64.62577778 35.04355555-95.00444445 62.69155555-37.54666667 34.24711111-76.23111111 69.632-128.4551111 69.632-134.03022222 0-174.87644445-28.78577778-186.25422223-41.18755555-6.37155555-6.94044445-7.28177778-12.40177778-7.28177777-14.56355556l1.59288888-4.20977778-1.13777778-1.70666666V330.52444445000003c42.55288889 27.76177778 110.02311111 58.82311111 199.33866667 58.8231111z m382.06577778-60.8711111h0.11377778-0.11377778zM268.85688889 778.69511111M239.84355555-50.631111110000006c-16.49777778 0-29.92355555 13.42577778-29.92355555 29.92355556V764.928c0 16.49777778 13.42577778 29.92355555 29.92355555 29.92355555s29.92355555-13.42577778 29.92355556-29.92355555v-785.63555555c0.11377778-16.49777778-13.312-29.92355555-29.92355556-29.92355556zM246.10133333-125.49688889000004c-97.28 0-173.39733333 48.81066667-173.39733333 111.04711111s76.11733333 111.04711111 173.39733333 111.04711111 173.39733333-48.81066667 173.39733334-111.04711111-76.11733333-111.04711111-173.39733334-111.04711111z m0 162.13333334c-69.29066667 0-113.43644445-30.26488889-113.43644444-51.08622223s44.14577778-51.08622222 113.43644444-51.08622222 113.43644445 30.26488889 113.43644445 51.08622222-44.14577778 51.08622222-113.43644445 51.08622223z"  horiz-adv-x="1024" />

    
    <glyph glyph-name="shangpin-copy" unicode="&#59388;" d="M917.064447 604.4204669999999L768.692032 604.4204669999999c1.551472 1.919168 3.085581 3.948645 4.600283 6.113965 28.344241 40.526208 42.8335 87.548376 40.797895 132.405225-1.037719 22.876809-6.294748 44.07958-15.622987 63.016936-10.050353 20.403033-24.30878 37.155663-42.380008 49.794186C738.017007 868.390323 717.389271 876.036353 694.776999 878.478467c-20.988282 2.268479-42.70787-0.068432-64.553088-6.940259-42.8335-13.475031-82.032939-43.215495-110.37718-83.740682-2.479904-3.545201-4.846435-7.143513-7.112871-10.78268-2.265415 3.639167-4.632967 7.23748-7.112871 10.78268-28.344241 40.526208-67.543681 70.265651-110.37718 83.740682-21.845218 6.872848-43.564806 9.208738-64.553088 6.940259-22.612272-2.442113-43.240008-10.088144-61.310215-22.726666C251.309276 843.113278 237.049828 826.359626 226.999475 805.956593c-9.32926-18.938378-14.585268-40.140128-15.622987-63.016936-2.035605-44.856848 12.453653-91.880038 40.797895-132.405225 1.514703-2.16532 3.048811-4.194797 4.600283-6.113965L101.424201 604.4204669999999c-50.232357 0-91.099705-40.867348-91.099705-91.099705l0-57.56176c0-50.232357 40.867348-91.099705 91.099705-91.099705l4.393965 0 0-377.07922c0-50.233378 40.867348-91.099705 91.099705-91.099705l630.26946 0c50.232357 0 91.098684 40.867348 91.098684 91.099705L918.286015 364.674617c49.670599 0.657767 89.877117 41.260579 89.877117 91.084385l0 57.56176C1008.164153 563.5531189999999 967.296804 604.4204669999999 917.064447 604.4204669999999zM574.250393 749.747136c18.408283 29.642412 46.952714 49.356015 75.897526 58.461594 10.020733 3.15197 19.782035 4.715699 29.024479 4.715699 14.586289 0 27.880536-3.89349 38.865449-11.575269 17.945599-12.551706 28.504598-34.363218 29.732293-61.41746 1.375795-30.311414-11.756053-68.283158-38.005449-91.273339-57.638364-50.482594-126.60993-47.122263-144.555529-34.570557C551.759665 623.491624 537.159076 690.021077 574.250393 749.747136zM277.69758 739.930679c1.227696 27.054242 11.786694 48.866775 29.732293 61.41746 10.984913 7.6828 24.27916 11.575269 38.865449 11.575269 9.242443 0 19.003746-1.562707 29.024479-4.715699 28.94379-9.1066 57.489243-28.819182 75.897526-58.461594 37.090295-59.726059 22.490728-126.25449 9.041232-135.660354-17.945599-12.551706-86.917165-15.912037-144.555529 34.570557C289.453633 671.647521 276.321785 709.619265 277.69758 739.930679zM76.715041 455.759002l0 57.56176c0 13.625173 11.085008 24.710181 24.710181 24.710181l375.392926 0 0-106.982122L101.424201 431.048821C87.800049 431.048821 76.715041 442.132807 76.715041 455.759002zM172.208711-12.419924000000037L172.208711 364.65929700000004l304.609437 0 0-401.789401-279.898235 0C183.293719-37.13010499999996 172.208711-26.045097000000055 172.208711-12.419924000000037zM827.188352-37.13010499999996L545.75703-37.13010499999996l0 401.789401 306.140481 0 0-377.07922C851.897512-26.045097000000055 840.813525-37.13010499999996 827.188352-37.13010499999996zM941.774628 455.759002c0-13.625173-11.086029-24.710181-24.710181-24.710181L545.75703 431.048821 545.75703 538.030943l371.307417 0c13.625173 0 24.710181-11.085008 24.710181-24.710181L941.774628 455.759002z"  horiz-adv-x="1024" />

    
    <glyph glyph-name="daohang-mobanxiaoxi-copy" unicode="&#59389;" d="M379.31457238 746.09882724v-317.74895771H149.75462217V746.09882724h229.55995021m87.75462215 87.75462218H62v-493.25820205h405.06919453V833.85344942zM379.31457238 166.91831864999995v-145.16457363H149.75462217V166.91831864999995h229.55995021m87.75462215 87.75462305H62v-320.67381885h405.06919453V254.67294170000002zM872.85271133 746.24537783v-138.63738516H643.89037079V746.24537783H872.85271133m87.75462305 87.75462217H556.13574864v-314.14663037H960.60733438V834zM872.85271133 339.06392901000004v-315.46294894H643.89037079V339.06392901000004H872.85271133m87.75462305 87.75462304H556.13574864v-490.97219502H960.60733438V426.81855205z"  horiz-adv-x="1024" />

    
    <glyph glyph-name="lifangtilitiduomiantifangkuai-copy" unicode="&#59390;" d="M398.67733333 419.49866667L95.57333333 583.3386666700001C89.42933333 586.752 82.60266667 588.1173333300001 76.45866667 588.1173333300001 54.61333333 588.1173333300001 34.13333333 569.00266667 34.13333333 542.3786666799999l0-320.17066668c0-33.45066667 17.06666667-63.488 45.056-78.50666667l303.104-163.84C388.43733333-23.55200000000002 395.264-25.60000001000003 401.408-25.60000001000003 423.25333333-25.60000001000003 443.73333333-5.802666670000008 443.73333333 20.821333330000016L443.73333333 340.99199999999996C443.73333333 373.76 426.66666667 404.48 398.67733333 419.49866667zM375.46666666 61.09866666999994l-264.19199999 142.67733334C107.17866667 206.50666666999996 102.39999999 212.65066666999996 102.39999999 222.20799999999997l2e-8 279.89333333 264.19199999-142.67733333C372.05333333 356.01066667 375.46666666 348.50133332999997 375.46666666 340.99199999999996L375.46666666 61.09866666999994zM879.27466667 588.1173333300001c-6.144 0-12.97066667-1.36533333-19.11466667-4.77866666L557.056 418.816C529.06666667 403.79733333 512 373.07733333 512 339.62666666999996l0-318.80533334C512-5.802666670000008 532.48-25.60000001000003 554.32533333-25.60000001000003c6.144 0 12.97066667 1.36533333 19.11466667 4.77866668l303.104 164.52266666c27.30666668 15.01866667 45.056 45.056 45.05600001 78.50666667L921.60000001 542.3786666799999C921.60000001 569.00266667 901.12 588.1173333300001 879.27466667 588.1173333300001zM853.33333333 222.89066666999997c0-9.55733333-4.77866667-16.38400001-8.87466666-18.432L580.26666667 61.09866666999994 580.26666667 339.62666666999996c0 9.55733333 4.77866667 16.38400001 8.87466666 18.432L853.33333333 502.10133333 853.33333333 222.89066666999997zM832.17066667 658.432c14.336 7.50933333 21.16266667 20.48 19.79733333 32.768 1.36533333 12.97066667-5.46133334 25.25866667-19.79733333 32.768L523.60533333 885.07733333C509.952 892.58666667 494.25066667 896 477.86666667 896c0 0 0 0 0 0 0 0 0 0 0 0-16.38400001 0-32.08533333-3.41333333-46.42133334-10.92266667L122.19733333 724.65066667C107.86133333 717.14133334 101.71733333 704.17066667 102.39999999 691.2 101.71733333 678.912 107.86133333 665.94133333 122.19733333 658.432l308.56533334-160.42666667c13.65333333-7.50933333 30.03733333-10.92266667 46.42133333-10.92266666 0 0 0 0 0.68266667 0 0 0 0 0 0.68266666 0 16.38400001 0 32.08533333 3.41333333 46.42133334 10.92266666L832.17066667 658.432zM477.184 555.34933333c-5.46133334 0-10.92266667 1.36533333-15.01866667 3.41333334L206.848 691.2l255.31733333 133.12C466.26133333 826.3680000100001 471.72266667 827.73333333 477.86666667 827.73333333c5.46133334 0 10.92266667-1.36533333 15.01866666-3.41333333l255.31733334-133.12L492.20266667 558.76266667C488.78933333 556.71466667 483.328 555.34933333 477.184 555.34933333z"  horiz-adv-x="1024" />

    
    <glyph glyph-name="T-copy-copy" unicode="&#59392;" d="M952.10158711 829.40401588l0-141.83996935-364.54197729 2e-8 3e-8-760.89852715-151.11921967 2e-8 0 760.89852711-364.54197729 2e-8 0 141.83996933 880.20317422 0z"  horiz-adv-x="1024" />

    
    <glyph glyph-name="erweima-copy" unicode="&#59393;" d="M375.46666666 861.86666667l-266.23999999 0c-54.61333333 0-95.57333333-44.37333333-95.57333334-95.57333334l0-242.34666666c0-54.61333333 44.37333333-95.57333333 95.57333334-95.57333334l266.24000001 0c54.61333333 0 95.57333333 44.37333333 95.57333332 95.57333334l0 242.34666666C471.04 817.49333333 430.07999999 861.86666667 375.46666666 861.86666667zM423.25333333 523.94666667c0-27.30666668-20.48-47.78666667-47.78666667-47.78666667l-266.23999999 0c-27.30666668 0-47.78666667 20.48-47.78666667 47.78666667l0 242.34666666c0 27.30666668 20.48 47.78666667 47.78666667 47.78666667l266.24000001 0c27.30666668 0 47.78666667-20.48 47.78666665-47.78666667L423.25333333 523.94666667zM170.66666667 725.33333333l143.36 0 0-143.36-143.36 0 0 143.36ZM368.64 349.86666667l-259.41333333 0c-51.2 0-92.16-40.96-92.16-95.57333334l0-235.52c0-51.2 40.96-95.57333333 92.16-95.57333333l259.41333333 0c51.2 0 92.16 40.96 92.16 95.57333333l0 235.52C464.21333333 308.90666667000005 419.84 349.86666667 368.64 349.86666667zM416.42666667 22.186666670000022c0-27.30666668-20.48-47.78666667-47.78666667-47.78666666l-259.41333333 0c-27.30666668 0-47.78666667 20.48-47.78666667 47.78666666l0 235.52c0 27.30666668 20.48 47.78666667 47.78666667 47.78666666l259.41333333 0c27.30666668 0 47.78666667-20.48 47.78666667-47.78666666L416.42666667 22.186666670000022zM170.66666667 216.74666666999997l139.94666666 0 0-139.94666667-139.94666666 0 0 139.94666667ZM641.70666667 428.37333333l266.24 0c54.61333333 0 95.57333333 44.37333333 95.57333333 95.57333334l0 242.34666666c0 54.61333333-44.37333333 95.57333333-95.57333333 95.57333334l-266.24 0c-54.61333333 0-95.57333333-44.37333333-95.57333334-95.57333334l0-242.34666666C546.13333333 469.33333333 590.50666667 428.37333333 641.70666667 428.37333333zM593.92000001 766.29333333c0 27.30666668 20.48 47.78666667 47.78666666 47.78666667l266.24 0c27.30666668 0 47.78666667-20.48 47.78666666-47.78666667l0-242.34666666c0-27.30666668-20.48-47.78666667-47.78666666-47.78666667l-266.24 0c-27.30666668 0-47.78666667 20.48-47.78666666 47.78666667L593.92000001 766.29333333zM713.38666667 725.33333333l143.36 0 0-143.36-143.36 0 0 143.36ZM576.85333333 165.54666667000004l146.77333334 0c13.65333333 0 23.89333333 10.24 23.89333333 23.89333333l0 146.77333333c0 13.65333333-10.24 23.89333333-23.89333333 23.89333334l-146.77333334 0c-13.65333333 0-23.89333333-10.24-23.89333333-23.89333334l0-146.77333333C552.96 175.78666667000005 563.2 165.54666667000004 576.85333333 165.54666667000004zM911.36 329.38666666999995l0-40.96c0-13.65333333 13.65333333-27.30666668 27.30666667-27.30666667l40.96 0c13.65333333 0 27.30666668 13.65333333 27.30666666 27.30666667l0 40.96c0 13.65333333-13.65333333 27.30666668-27.30666666 27.30666667l-40.96-2e-8C925.01333333 356.69333331999997 911.36 346.45333332999996 911.36 329.38666666999995zM587.09333333-76.79999999999995l51.2 0c13.65333333 0 23.89333333 10.24 23.89333334 23.89333333l0 51.2c0 13.65333333-10.24 23.89333333-23.89333334 23.89333334l-51.2 0c-13.65333333 0-23.89333333-10.24-23.89333333-23.89333334l0-51.2C563.2-66.55999999999995 573.44-76.79999999999995 587.09333333-76.79999999999995zM972.8 179.20000000000005l-105.81333334 0c-17.06666667 0-30.72-13.65333333-30.71999999-30.72l0-47.78666667-51.2 0c-20.48 0-34.13333333-13.65333333-34.13333334-34.13333333l0-105.81333333c0-17.06666667 13.65333333-30.72 30.72-30.72l191.14666667-3.41333334c17.06666667 0 30.72 13.65333333 30.72 30.72l0 191.14666667C1003.52 165.54666667000004 989.86666667 179.20000000000005 972.8 179.20000000000005z"  horiz-adv-x="1024" />

    
    <glyph glyph-name="tuceng-copy" unicode="&#59394;" d="M512 309.00018309999996L137.00009156 524.6252746600001 512 740.2503662199999l374.99990844-215.62591554L512 309.00100708zM230.75027466 524.6252746600001L512 365.24963378999996l281.24972534 159.37564087L512 684.00009157 230.75027466 524.6252746600001zM840.1248169 430.87509156l-46.87509156-28.12472534L512 243.37472534999995 183.8751831 430.87591552l-46.87591552-28.12472534L512 187.12445067l374.99990844 215.62591555zM840.1248169 299.625l-46.87509156-28.12472534L512 112.12463377999995l0-4.68676756L183.8751831 294.93658447999996l-46.87591552-23.4371338L512 55.874359140000024l374.99990844 215.62591552z"  horiz-adv-x="1024" />

    
    <glyph glyph-name="LOCKOPEN-copy" unicode="&#59395;" d="M465.41816334 112.54215961a26.51214381 26.51214381 0 0 1 26.5121438-26.5121438h62.62168367a26.51214381 26.51214381 0 0 1 26.51214379 26.5121438v85.66073662a91.57294469 91.57294469 0 0 1 34.4922991 71.45022755 92.34179686 92.34179686 0 0 1-184.63056944 0c0-27.99682386 12.88490189-54.13779764 34.49229908-71.45022755v-85.66073662z m57.84949778 196.18986414a39.23797282 39.23797282 0 0 0 39.29099711-39.10541211c0-14.07794836-7.90061886-27.14843525-20.65296002-34.06810479a26.51214381 26.51214381 0 0 1-13.83933906-23.27766225v-73.2265412h-9.59739606v73.2265412c0 9.70344463-5.30242877 18.66454924-13.83933907 23.27766225a38.97285139 38.97285139 0 0 0-20.65296001 34.06810479 39.21146068 39.21146068 0 0 0 39.29099711 39.10541211zM231.63407929-29.244785449999995h583.26716364a26.51214381 26.51214381 0 0 1 26.51214382 26.51214381V446.48912294a26.51214381 26.51214381 0 0 1-26.51214382 26.5121438H286.91189911a220.10381785 220.10381785 0 0 0 53.97872478 227.73931527c87.2779774 86.13795521 229.99284749 86.88029524 318.09270135 1.77631363l65.6705802-64.79567945 37.24956205 37.75329278-65.98872593 65.11382516c-108.72630173 105.06762589-284.68740015 104.11318871-392.24716757-2.12097148a273.28717831 273.28717831 0 0 1-72.51071329-265.54563234 26.45911951 26.45911951 0 0 1-26.00841307-26.40609523v-449.22176458a26.45911951 26.45911951 0 0 1 26.48563166-26.53865595z m556.75501986 53.0242876h-530.24287606V419.97697914h530.24287606v-396.19747699z"  horiz-adv-x="1024" />

    
    <glyph glyph-name="lockclosed-copy" unicode="&#59396;" d="M231.63407929-29.430370450000055l583.26716364 0c14.63470338 0 26.51214381 11.87744042 26.51214382 26.51214379l0 453.62278047c0 14.63470338-11.87744042 26.51214381-26.51214382 26.5121438l-12.56675616 0c0 27.30750811 0 65.96221377 0 66.49245666-1.64375292 151.78202327-126.8075838 275.24907696-279.04031351 275.24907695-152.68343616 0-277.84726704-123.8382237-279.06682567-276.25653842l0-65.48499519-12.56675616 0c-14.63470338 0-26.51214381-11.87744042-26.5121438-26.5121438l0-453.62278047C205.12193549-17.55293002999997 216.97286378-29.430370450000055 231.63407929-29.430370450000055zM788.38909915 23.59391715000004l-530.24287606 0 0 400.59849284 530.24287606 0L788.38909915 23.59391715000004zM297.22512305 542.4895956600001c0.98094932 123.20193226 102.36338722 223.44434796 226.04253807 223.44434796 123.30798082 0 224.71693087-99.95078213 226.01602591-222.6754958 0-1.72328935 0-39.29099711 0-66.04175021L297.19861091 477.21669761 297.22512305 542.4895956600001zM465.41816334 112.54215961c0-14.63470338 11.87744042-26.51214381 26.5121438-26.5121438l62.62168367 0c14.63470338 0 26.51214381 11.87744042 26.51214379 26.5121438l0 85.66073662c21.60739721 17.31242991 34.49229909 43.45340369 34.4922991 71.45022755 0 50.79726752-41.41196863 92.12969971-92.31528473 92.12969971s-92.31528471-41.33243219-92.31528471-92.12969971c0-27.99682386 12.88490189-54.13779764 34.49229908-71.45022755L465.41816334 112.54215961zM523.26766112 308.73202375000005c21.66042148 0 39.29099711-17.5510392 39.29099711-39.10541211 0-14.07794836-7.90061886-27.14843525-20.65296002-34.06810479-8.5369103-4.63962516-13.83933906-13.57421762-13.83933906-23.27766225l0-73.2265412-9.59739606 0 0 73.2265412c0 9.70344463-5.30242877 18.66454924-13.83933907 23.27766225-12.72582902 6.91966954-20.65296003 19.99015643-20.65296001 34.06810479C483.95015185 291.20749668999997 501.58072749 308.73202375000005 523.26766112 308.73202375000005z"  horiz-adv-x="1024" />

    
    <glyph glyph-name="qingkong-copy" unicode="&#59397;" d="M466.37562465 429.36366462H420.75124932V686.2940754900001C420.75124932 711.32230425 441.17358875 731.61428833 466.37562465 731.61428833h91.2487507c25.2020359 0 45.58092356-20.29198409 45.58092356-45.32021285v-256.93041086h-45.62437535v237.24675179a19.72711087 19.72711087 0 0 1-19.72711086 19.68365908h-51.70762539a19.68365908 19.68365908 0 0 1-19.77056266-19.68365908v-237.24675179z m91.2487507 0h212.78339624c25.2020359 0 45.62437535-20.33543587 45.62437534-45.36366462v-105.80509901H207.96785307V384c0 25.02822876 20.42233943 45.36366462 45.62437535 45.36366462H466.37562465V384H273.31933927a19.72711087 19.72711087 0 0 1-19.72711085-19.6402073v-40.84467887h516.81554317v40.84467887A19.68365908 19.68365908 0 0 1 750.68066073 384H557.62437535V429.36366462z m42.27858782-347.61428832h41.27919674V172.38980198000002h-41.27919674v-90.68387747h-315.89448453a30.32934666 30.32934666 0 0 0-30.41625022 30.24244309v105.80509901h516.81554317v-105.80509902a30.32934666 30.32934666 0 0 0-30.41625023-30.24244307h-10.68913937V172.38980198000002h-42.49584674v-90.68387747h-173.80714416 86.90357208z m-391.9351101 0c0-25.07168054 20.42233943-45.36366462 45.62437535-45.36366463h516.81554317c25.2020359 0 45.62437535 20.29198409 45.62437534 45.32021285v181.36775492H207.96785307v-181.36775492z"  horiz-adv-x="1024" />

    
    <glyph glyph-name="diannaoban-copy" unicode="&#59398;" d="M857.5051389 774.7444053300001L167.27144562 774.7444053300001c-50.82380745 0-92.03053795-41.19508765-92.03053796-92.03053795l0-483.16148964c0-50.82147954 41.20789447-92.03170189 92.03053796-92.03170191l690.23369328 0c50.82147954 0 92.02937401 41.2102235 92.02937402 92.03170191L949.53451294 682.71270341C949.53451294 733.54931769 908.32661844 774.7444053300001 857.5051389 774.7444053300001zM512.40924957 130.52830946999995c-25.42238265 0-46.02691243 20.60452979-46.02691243 46.01410448 0 25.4119037 20.60452979 46.01410446 46.02691243 46.01410445 25.41073978 0 46.01526955-20.60220075 46.01526954-46.01410445C558.42568306 151.13283924999996 537.82115328 130.52830946999995 512.40924957 130.52830946999995zM880.51277369 245.56531826000003L144.27312583 245.56531826000003 144.27312583 705.72150215l736.23848391 0L880.51160974 245.56531826000003zM673.46501974 61.505406300000004L351.35580843 61.505406300000004c-19.06416753 0-34.51203356-15.45601708-34.51203359-34.51319865 0-19.05135956 15.4478672-34.51086962 34.51203359-34.51086961l322.10804736 0c19.0536886 0 34.4899129 15.45834496 34.48991289 34.51086961C707.95493262 46.04822528 692.51870834 61.505406300000004 673.46501974 61.505406300000004z"  horiz-adv-x="1024" />

    
    <glyph glyph-name="weibiaoti2fuzhi07-copy" unicode="&#59399;" d="M460.8 70.39999999999998l102.4 0 0-31.99999999L460.8 38.400000009999985 460.8 70.39999999999998zM729.6 832L294.4 832C268.8 832 243.2 812.8 243.2 787.2l0-806.4c0-25.60000003 19.2-44.80000001 44.8-44.8l441.6 0c25.60000003 0 44.80000001 19.2 44.8 44.8L774.4 787.2C780.8 812.8 755.2 832 729.6 832zM742.40000001-19.200000000000045c0-6.4-6.4-12.8-12.80000001-12.80000001L294.4-31.999999989999992c-6.4 0-12.8 6.4-12.80000001 12.79999999l0 153.6 467.20000002 0L748.80000001-19.200000000000045zM742.40000001 166.39999999999998L281.59999999 166.39999999999998 281.59999999 697.6l467.20000002 0L748.80000001 166.39999999999998zM742.40000001 729.59999999L281.59999999 729.59999999 281.59999999 787.2c0 6.4 6.4 12.8 12.80000001 12.80000001l441.6 0c6.4 0 12.8-6.4 12.79999999-12.80000001L748.80000001 729.59999999z"  horiz-adv-x="1024" />

    
    <glyph glyph-name="tuceng-copy1" unicode="&#59400;" d="M512 309.00018309999996L137.00009156 524.6252746600001 512 740.2503662199999l374.99990844-215.62591554L512 309.00100708zM230.75027466 524.6252746600001L512 365.24963378999996l281.24972534 159.37564087L512 684.00009157 230.75027466 524.6252746600001zM840.1248169 430.87509156l-46.87509156-28.12472534L512 243.37472534999995 183.8751831 430.87591552l-46.87591552-28.12472534L512 187.12445067l374.99990844 215.62591555zM840.1248169 299.625l-46.87509156-28.12472534L512 112.12463377999995l0-4.68676756L183.8751831 294.93658447999996l-46.87591552-23.4371338L512 55.874359140000024l374.99990844 215.62591552z"  horiz-adv-x="1024" />

    
    <glyph glyph-name="xiashuangjiantou-copy" unicode="&#59401;" d="M859.9-6.5L512 341.4l-347.9-347.9-67.5 67.5L512 476.3 927.4 61zM859.9 291.70000000000005L512 639.6l-347.9-347.9-67.5 67.4L512 774.5 927.4 359.1z"  horiz-adv-x="1024" />

    


  </font>
</defs>
</svg>
