<!-- Generator: Adobe Illustrator 19.0.0, SVG Export Plug-In  -->
<svg version="1.1"
	 xmlns="http://www.w3.org/2000/svg" xmlns:xlink="http://www.w3.org/1999/xlink" xmlns:a="http://ns.adobe.com/AdobeSVGViewerExtensions/3.0/"
	 x="0px" y="0px" width="165.5px" height="81.9px" viewBox="0 0 165.5 81.9" style="enable-background:new 0 0 165.5 81.9;"
	 xml:space="preserve">
<style type="text/css">
	.st0{fill:#CCE6FF;}
	.st1{fill:#DEEBF9;}
	.st2{fill:#9EC8F2;}
	.st3{opacity:0.46;fill:#AFD1F9;}
	.st4{fill:#C3E2FC;}
	.st5{fill:#9BCAF9;}
	.st6{fill-rule:evenodd;clip-rule:evenodd;fill:#DEEBF9;}
	.st7{fill-rule:evenodd;clip-rule:evenodd;fill:#AFD1F9;}
	.st8{fill:#FFFFFF;stroke:#DEEBF9;stroke-width:8;stroke-linecap:round;stroke-linejoin:round;stroke-miterlimit:10;}
	.st9{fill:#FFFFFF;stroke:#AFD1F9;stroke-width:8;stroke-miterlimit:10;}
</style>
<defs>
</defs>
<polygon class="st0" points="138.8,33.2 130,37.8 148.2,63 "/>
<polygon class="st1" points="121.4,25.8 122.6,41.7 130,37.8 "/>
<polygon class="st2" points="148.2,63 130,37.8 122.6,41.7 122.6,41.7 124.8,55.2 "/>
<polygon class="st3" points="124.8,55.2 124.8,63 148.2,63 "/>
<polygon class="st1" points="92.7,10.8 157.1,10.8 157.1,69.8 124.8,69.8 124.8,77.8 165.5,77.8 165.5,3.3 92.7,3.3 "/>
<g>
	<polygon class="st3" points="32.7,49.2 32.1,49.5 32.5,49.6 	"/>
	<polygon class="st4" points="21.6,46 6.4,63 32.1,49.5 	"/>
	<polygon class="st3" points="32.1,49.5 6.4,63 25,63 32.5,49.6 	"/>
	<polygon class="st5" points="42.1,45.5 6.4,63 35.3,63 	"/>
</g>
<path class="st6" d="M15,20.2c-0.1,0-0.2,0-0.3,0c-4.6,0-8.3,3.7-8.3,8.3c0,4.6,3.7,8.3,8.3,8.3c0.1,0,0.2,0,0.3,0V20.2z"/>
<path class="st7" d="M14.1,36.8c0.1,0,0.2,0,0.3,0c4.6,0,8.3-3.7,8.3-8.3c0-4.6-3.7-8.3-8.3-8.3c-0.1,0-0.2,0-0.3,0V36.8z"/>
<polygon class="st1" points="0,77.8 57.2,77.8 57.2,69.8 7.8,69.8 7.8,10.8 87.2,10.8 87.2,3.3 0,3.3 "/>
<path class="st8" d="M38.6,71.8V66c0-11.9,9.8-21.7,21.7-21.7h2.2c11.9,0,21.7,9.8,21.7,21.7v5.8c0,3.4-2.7,6.1-6.1,6.1H44.7
	C41.4,77.9,38.6,75.1,38.6,71.8z"/>
<circle class="st8" cx="60" cy="33.4" r="16.8"/>
<path class="st8" d="M91.2,71.8V66c0-11.9,9.8-21.7,21.7-21.7h2.2c11.9,0,21.7,9.8,21.7,21.7v5.8c0,3.4-2.7,6.1-6.1,6.1H97.3
	C93.9,77.9,91.2,75.1,91.2,71.8z"/>
<circle class="st8" cx="112.6" cy="33.4" r="16.8"/>
<path class="st9" d="M61.6,70.5v-7c0-14.4,11.8-26.2,26.2-26.2h2.6c14.4,0,26.2,11.8,26.2,26.2v7c0,4.1-3.3,7.4-7.4,7.4H69
	C64.9,77.9,61.6,74.6,61.6,70.5z"/>
<circle class="st9" cx="87.4" cy="24.3" r="20.3"/>
</svg>
