<!-- Generator: Adobe Illustrator 19.0.0, SVG Export Plug-In  -->
<svg version="1.1"
	 xmlns="http://www.w3.org/2000/svg" xmlns:xlink="http://www.w3.org/1999/xlink" xmlns:a="http://ns.adobe.com/AdobeSVGViewerExtensions/3.0/"
	 x="0px" y="0px" width="134.7px" height="81.9px" viewBox="0 0 134.7 81.9" style="enable-background:new 0 0 134.7 81.9;"
	 xml:space="preserve">
<style type="text/css">
	.st0{fill:#CCE6FF;}
	.st1{fill:#DEEBF9;}
	.st2{fill:#45A5F4;}
	.st3{opacity:0.46;fill:#AFD1F9;}
	.st4{fill:#9BCAF9;}
	.st5{fill:#C3E2FC;}
	.st6{fill-rule:evenodd;clip-rule:evenodd;fill:#9BCAF9;}
	.st7{fill-rule:evenodd;clip-rule:evenodd;fill:#45A5F4;}
	.st8{fill:#FFFFFF;stroke:#178DFA;stroke-width:8;stroke-miterlimit:10;}
</style>
<defs>
</defs>
<polygon class="st0" points="108,33.2 99.2,37.8 117.4,63 "/>
<polygon class="st1" points="90.5,25.8 91.8,41.7 99.2,37.8 "/>
<polygon class="st2" points="117.4,63 99.2,37.8 91.8,41.7 91.8,41.7 94,55.2 "/>
<polygon class="st3" points="94,55.2 94,63 117.4,63 "/>
<polygon class="st4" points="61.9,10.8 126.2,10.8 126.2,69.8 94,69.8 94,77.8 134.7,77.8 134.7,3.3 61.9,3.3 "/>
<g>
	<polygon class="st3" points="46.9,49.2 46.3,49.5 46.7,49.6 	"/>
	<polygon class="st5" points="35.8,46 20.6,63 46.3,49.5 	"/>
	<polygon class="st3" points="46.3,49.5 20.6,63 39.2,63 46.7,49.6 	"/>
	<polygon class="st2" points="56.3,45.5 20.6,63 49.5,63 	"/>
</g>
<path class="st6" d="M29.2,20.2c-0.1,0-0.2,0-0.3,0c-4.6,0-8.3,3.7-8.3,8.3c0,4.6,3.7,8.3,8.3,8.3c0.1,0,0.2,0,0.3,0V20.2z"/>
<path class="st7" d="M28.3,36.8c0.1,0,0.2,0,0.3,0c4.6,0,8.3-3.7,8.3-8.3c0-4.6-3.7-8.3-8.3-8.3c-0.1,0-0.2,0-0.3,0V36.8z"/>
<polygon class="st4" points="0,77.8 57.2,77.8 57.2,69.8 7.8,69.8 7.8,10.8 87.2,10.8 87.2,3.3 0,3.3 "/>
<path class="st8" d="M47.8,70.5v-7c0-14.4,11.8-26.2,26.2-26.2h2.6c14.4,0,26.2,11.8,26.2,26.2v7c0,4.1-3.3,7.4-7.4,7.4H55.2
	C51.1,77.9,47.8,74.6,47.8,70.5z"/>
<circle class="st8" cx="73.6" cy="24.3" r="20.3"/>
</svg>
