<!-- Generator: Adobe Illustrator 19.0.0, SVG Export Plug-In  -->
<svg version="1.1"
	 xmlns="http://www.w3.org/2000/svg" xmlns:xlink="http://www.w3.org/1999/xlink" xmlns:a="http://ns.adobe.com/AdobeSVGViewerExtensions/3.0/"
	 x="0px" y="0px" width="169.7px" height="81.9px" viewBox="0 0 169.7 81.9" style="enable-background:new 0 0 169.7 81.9;"
	 xml:space="preserve">
<style type="text/css">
	.st0{fill:#CCE6FF;}
	.st1{fill:#DEEBF9;}
	.st2{fill:#45A5F4;}
	.st3{opacity:0.46;fill:#AFD1F9;}
	.st4{fill:#9BCAF9;}
	.st5{fill:#C3E2FC;}
	.st6{fill-rule:evenodd;clip-rule:evenodd;fill:#9BCAF9;}
	.st7{fill-rule:evenodd;clip-rule:evenodd;fill:#45A5F4;}
	.st8{fill:#FFFFFF;stroke:#6CBDFF;stroke-width:8;stroke-miterlimit:10;}
	.st9{fill:#FFFFFF;stroke:#178DFA;stroke-width:8;stroke-miterlimit:10;}
</style>
<defs>
</defs>
<polygon class="st0" points="143,33.2 134.2,37.8 152.4,63 "/>
<polygon class="st1" points="125.6,25.8 126.8,41.7 134.2,37.8 "/>
<polygon class="st2" points="152.4,63 134.2,37.8 126.8,41.7 126.8,41.7 129,55.2 "/>
<polygon class="st3" points="129,55.2 129,63 152.4,63 "/>
<polygon class="st4" points="96.9,10.8 161.3,10.8 161.3,69.8 129,69.8 129,77.8 169.7,77.8 169.7,3.3 96.9,3.3 "/>
<polygon class="st3" points="46.9,49.2 46.3,49.5 46.7,49.6 "/>
<polygon class="st5" points="35.8,46 20.6,63 46.3,49.5 "/>
<polygon class="st3" points="46.3,49.5 20.6,63 39.2,63 46.7,49.6 "/>
<polygon class="st2" points="56.3,45.5 20.6,63 49.5,63 "/>
<path class="st6" d="M29.2,20.2c-0.1,0-0.2,0-0.3,0c-4.6,0-8.3,3.7-8.3,8.3c0,4.6,3.7,8.3,8.3,8.3c0.1,0,0.2,0,0.3,0V20.2z"/>
<path class="st7" d="M28.3,36.8c0.1,0,0.2,0,0.3,0c4.6,0,8.3-3.7,8.3-8.3c0-4.6-3.7-8.3-8.3-8.3c-0.1,0-0.2,0-0.3,0V36.8z"/>
<polygon class="st4" points="0,77.8 57.2,77.8 57.2,69.8 7.8,69.8 7.8,10.8 87.2,10.8 87.2,3.3 0,3.3 "/>
<path class="st8" d="M42.8,71.8V66c0-11.9,9.8-21.7,21.7-21.7h2.2c11.9,0,21.7,9.8,21.7,21.7v5.8c0,3.4-2.7,6.1-6.1,6.1H48.9
	C45.6,77.9,42.8,75.1,42.8,71.8z"/>
<circle class="st8" cx="64.2" cy="33.4" r="16.8"/>
<path class="st8" d="M95.4,71.8V66c0-11.9,9.8-21.7,21.7-21.7h2.2C131.2,44.3,141,54,141,66v5.8c0,3.4-2.7,6.1-6.1,6.1h-33.4
	C98.1,77.9,95.4,75.1,95.4,71.8z"/>
<circle class="st8" cx="116.8" cy="33.4" r="16.8"/>
<path class="st9" d="M65.8,70.5v-7c0-14.4,11.8-26.2,26.2-26.2h2.6c14.4,0,26.2,11.8,26.2,26.2v7c0,4.1-3.3,7.4-7.4,7.4H73.2
	C69.1,77.9,65.8,74.6,65.8,70.5z"/>
<circle class="st9" cx="91.6" cy="24.3" r="20.3"/>
</svg>
